<?xml version="1.0" encoding="UTF-8" standalone="no"?>
<svg
   xmlns:dc="http://purl.org/dc/elements/1.1/"
   xmlns:cc="http://creativecommons.org/ns#"
   xmlns:rdf="http://www.w3.org/1999/02/22-rdf-syntax-ns#"
   xmlns:svg="http://www.w3.org/2000/svg"
   xmlns="http://www.w3.org/2000/svg"
   xmlns:sodipodi="http://sodipodi.sourceforge.net/DTD/sodipodi-0.dtd"
   xmlns:inkscape="http://www.inkscape.org/namespaces/inkscape"
   viewBox="0 0 24 24"
   version="1.1"
   id="svg10"
   sodipodi:docname="everforest_railroad_crossing.svg"
   inkscape:version="0.92.3 (2405546, 2018-03-11)">
  <metadata
     id="metadata16">
    <rdf:RDF>
      <cc:Work
         rdf:about="">
        <dc:format>image/svg+xml</dc:format>
        <dc:type
           rdf:resource="http://purl.org/dc/dcmitype/StillImage" />
        <dc:title></dc:title>
      </cc:Work>
    </rdf:RDF>
  </metadata>
  <defs
     id="defs14" />
  <sodipodi:namedview
     pagecolor="#ffffff"
     bordercolor="#666666"
     borderopacity="1"
     objecttolerance="10"
     gridtolerance="10"
     guidetolerance="10"
     inkscape:pageopacity="0"
     inkscape:pageshadow="2"
     inkscape:window-width="2560"
     inkscape:window-height="1266"
     id="namedview12"
     showgrid="false"
     inkscape:zoom="59.943537"
     inkscape:cx="13.662423"
     inkscape:cy="15.348652"
     inkscape:window-x="-11"
     inkscape:window-y="35"
     inkscape:window-maximized="1"
     inkscape:current-layer="svg10" />
  <path
     d="M12 3A9 9 0 1 0 12 21A9 9 0 1 0 12 3Z"
     opacity=".3"
     fill="#6868AC"
     id="path2"
     style="fill:#a7c080;fill-opacity:1" />
  <path
     d="M12,4c4.4,0,8,3.6,8,8s-3.6,8-8,8s-8-3.6-8-8S7.6,4,12,4 M12,2C6.5,2,2,6.5,2,12s4.5,10,10,10s10-4.5,10-10S17.5,2,12,2L12,2z"
     fill="#6868AC"
     id="path4"
     style="fill:#2b3339;fill-opacity:1" />
  <path
     d="M11 3H13V21H11z"
     transform="rotate(-45.001 12 12)"
     fill="#6868AC"
     id="path6"
     style="fill:#2b3339;fill-opacity:1" />
  <path
     d="M11 3H13V21H11z"
     transform="rotate(-134.999 12 12)"
     fill="#6868AC"
     id="path8"
     style="fill:#2b3339;fill-opacity:1" />
</svg>
